<?xml version="1.0" encoding="utf-8"?>
<!-- Generator: Adobe Illustrator 23.0.6, SVG Export Plug-In . SVG Version: 6.00 Build 0)  -->
<svg version="1.1" xmlns="http://www.w3.org/2000/svg" xmlns:xlink="http://www.w3.org/1999/xlink" x="0px" y="0px"
	 viewBox="0 0 499.9 189" style="enable-background:new 0 0 499.9 189;" xml:space="preserve">
<style type="text/css">
	.st0{fill:#231F20;}
	.st1{fill:#F6CC80;stroke:#A5565F;stroke-width:0.75;stroke-miterlimit:10;}
	.st2{fill:#FFD24F;stroke:#E7B00C;stroke-width:0.5;stroke-miterlimit:10;}
	.st3{fill:#E02A27;stroke:#D04F53;stroke-width:0.5;stroke-miterlimit:10;}
	.st4{fill:#821920;}
	.st5{display:none;}
	.st6{display:inline;}
	.st7{fill:#FDE021;}
	.st8{fill:#F0EC73;}
	.st9{fill:#E1251B;}
	.st10{fill:#8E2A2A;}
</style>
<g id="Layer_1">
	<g>
		<path class="st0" d="M45.6,88.8c-0.9,8.7-1.4,15.7-1.4,21c0,2.1-0.6,3.9-1.9,5.5c-1.2,1.6-2.9,2.4-5.1,2.4c-4.6,0-6.9-2.7-6.9-8.1
			c0-3,1.1-13,3.3-30.1c1.8-13.8,2.7-22.1,2.7-24.8c0-3-0.1-4.8-0.4-5.2c-2.4-1.2-3.7-3.5-3.7-6.7c0-3.2,5.1-5.9,15.3-8.3
			s18.9-3.5,26.2-3.5c8.5,0,15.3,1.8,20.3,5.2s7.6,8.2,7.6,14.2c0,8.6-4.6,16.1-13.9,22.6S67.2,84.2,53.9,86.9
			C49.1,87.9,46.3,88.6,45.6,88.8z M50.7,46.5l-3.3,29.7c10.8-1.8,20.3-5,28.5-9.6S88.1,57,88.1,51.7c0-6.3-5-9.4-14.9-9.4
			C66.4,42.3,58.8,43.7,50.7,46.5z"/>
		<path class="st0" d="M129.1,95.5c-9.9,13-19.4,19.6-28.6,19.6c-3.4,0-6.3-1.3-8.7-4s-3.7-6.1-3.7-10.2c0-10,4.4-20.6,13.3-31.8
			s17.8-16.9,26.8-16.9c4.6,0,7.6,2.3,9,6.9c4.3,0,6.5,1.7,6.5,5c0,1.6-0.4,4.4-1.2,8.6c-1.5,7.7-2.3,13.9-2.3,18.5
			c0,4.8,0.3,8.2,1,10.2s1.1,3.2,1.4,3.8s1.2,1.2,2.7,1.9c1.5,0.7,2.3,1.7,2.3,3c0,1.9-1,3.5-2.9,4.8c-1.9,1.3-4,1.9-6.1,1.9
			C131.6,116.8,128.4,109.7,129.1,95.5z M125.8,64.2c-3.8,0-8.7,4.2-14.8,12.6s-9.1,15.5-9.1,21.4c0,3.1,0.6,4.6,1.9,4.6
			c4.4,0,9.9-3.9,16.4-11.8s9.7-14.8,9.7-20.7c0-1.9-0.4-3.4-1.3-4.5C127.8,64.8,126.8,64.2,125.8,64.2z"/>
		<path class="st0" d="M189.3,93.7c-3.6,6.6-7.8,11.8-12.6,15.7c-4.8,3.9-9.6,5.8-14.5,5.8c-2.9,0-5.8-1.5-8.8-4.6
			c-2.9-3-4.4-7.7-4.4-14c0-4.5,1.1-11.2,3.4-20.2c1.9-7.4,2.9-13.1,2.9-17c1.5-3.2,3.9-4.7,7.1-4.7c2.2,0,3.9,0.7,5.2,2.2
			c1.3,1.5,1.9,2.9,1.9,4.4c0,2.7-0.9,6.5-2.8,11.4c-1.1,2.9-2.3,7.1-3.5,12.4c-1.3,5.4-1.9,8.8-1.9,10.3c0,5,1,7.5,3.1,7.5
			c3.3,0,7.7-3.1,13.2-9.4s9.2-12.7,10.9-19.3c1.7-6.4,3.2-10.6,4.5-12.6c1.3-2,3.2-3,5.6-3c3.9,0,5.9,2.2,5.9,6.5
			c0,0.6-0.3,1.9-1,3.8c-2.2,6.7-3.3,14.2-3.3,22.5c0,9.8,1.6,15.6,5,17.5c1.1,0.6,1.6,1.4,1.6,2.4c0,1.3-1,2.6-2.9,3.8
			s-3.7,1.8-5.5,1.8c-3,0-5.2-2.1-6.9-6.3C190.1,106.4,189.3,100.8,189.3,93.7z"/>
		<path class="st0" d="M229.6,18.9c4.1,0,6.1,2.2,6.1,6.6c0,2-0.3,4.2-0.9,6.6s-2.1,8.2-4.6,17.5c-1.8,6.7-3.2,14.1-4.2,22
			s-1.4,14.2-1.4,18.6c0,4.8,0.4,10.4,1.1,17c0.2,1.8,0.3,2.9,0.3,3.3c0,2.3-0.8,4.2-2.5,5.8s-3.5,2.4-5.4,2.4
			c-2.7,0-4.6-1.3-5.6-3.8s-1.6-6.8-1.6-13c0-13.2,1.6-28.7,4.6-46.6c3.1-17.9,5.6-28.5,7.6-31.7S227.2,18.9,229.6,18.9z"/>
		<path class="st0" d="M284.1,81.2c-0.6,9.1-1.7,18-3.2,26.6c-1.5,8.6-3.8,16.4-6.7,23.4c-3,7-6.1,11.8-9.5,14.3
			c-3.4,2.5-7.5,3.8-12.1,3.8c-5,0-9.9-1-14.5-2.9h0.1c-4-1.6-7.4-3.9-10.4-6.6s-4.4-5.1-4.4-7.1c0-1.8,0.4-3.2,1.3-4.2
			c0.9-1.1,2-1.6,3.5-1.6c1.2,0,2.3,0.5,3.1,1.6c4.8,6.2,11.8,9.3,21,9.3c3.7,0,7.3-3.9,10.8-11.7s5.6-17.1,6.5-28
			c-11.6,9.2-20.6,13.8-26.8,13.8c-4.1,0-7.3-1.6-9.6-4.8c-2.4-3.2-3.6-7.1-3.6-11.7c0-4.6,1.1-11.2,3.2-19.8s3.9-14,5.4-16.1
			s3.9-3.1,7.2-3.1c1.8,0,3.2,0.8,4.2,2.3c1,1.6,1.5,3.3,1.5,5.2c0,0.6-1.4,3.7-4.1,9.5c-3.3,7.1-5,13.2-5,18.3c0,2.6,0.4,4.6,1.1,6
			c0.7,1.4,1.5,2.1,2.3,2.1c1.8,0,4-0.6,6.6-1.6c2.6-1.1,5.6-3,9.1-5.7c3.5-2.7,5.7-4.7,6.7-6.1c1-1.4,1.8-3.2,2.4-5.4
			c0.6-2.2,1.1-7,1.4-14.5c0.2-4.4,0.4-7.1,0.6-8.2c0.2-1.1,0.9-2.2,2-3.1s2.6-1.4,4.4-1.4c2.5,0,4.2,0.5,5.3,1.6
			c1,1,1.5,3.5,1.5,7.4L284.1,81.2z"/>
		<path class="st0" d="M317,100.1c-0.1-2-3.4-4.5-9.7-7.4c-7.7-3.7-12.7-6.9-14.8-9.6c-2.1-2.7-3.2-5.6-3.2-8.8
			c0-6.7,3.7-12.5,11.2-17.5s14.4-7.5,20.9-7.5c6.4,0,9.5,2.8,9.5,8.3c0,1.5-0.7,2.8-2.2,4c-1.5,1.2-2.7,1.8-3.7,1.8
			c-0.4,0-1.1-0.3-2.2-0.8c-1-0.5-1.9-0.8-2.4-0.8c-3.4,0-7,1.1-11,3.4c-4,2.3-6,4.9-6,7.9c0,1.5,0.7,2.9,2.1,4.3
			c1.4,1.4,4.3,3.1,8.7,5.2c6.5,3.1,10.8,5.9,12.9,8.3c2.1,2.5,3.1,5.2,3.1,8.2c0,5.5-3.7,10.1-11.1,13.7c-7.4,3.7-15.8,5.5-25,5.5
			c-6.8,0-10.2-2.5-10.2-7.4c0-1.8,0.7-3.3,2.1-4.6c1.4-1.3,3-1.9,4.8-1.9c0.7,0,1.8,0.3,3.3,0.8c1.5,0.6,2.9,0.8,4.2,0.8
			c3.5,0,7.2-0.6,11.1-1.7C313.2,103.1,315.8,101.7,317,100.1z"/>
	</g>
	<g>
		<path class="st0" d="M290.6,160.4v17.6h-2.9v-50.9H301c3.9,0.5,7.2,2.1,9.9,4.9c3.2,3.3,4.9,7.2,4.9,11.7c0,4.6-1.6,8.5-4.9,11.8
			s-7.1,4.9-11.7,4.9L290.6,160.4L290.6,160.4z M290.6,130.1v27.4h8.6c3.8,0,7-1.3,9.7-4s4-5.9,4-9.7c0-3.8-1.3-7-4-9.7
			c-2.7-2.7-5.9-4-9.7-4L290.6,130.1L290.6,130.1z"/>
		<path class="st0" d="M324.6,136.6c0.6,0.6,0.9,1.2,0.9,2c0,0.8-0.3,1.5-0.9,2.1c-0.6,0.6-1.2,0.8-2,0.8c-0.8,0-1.5-0.3-2-0.8
			s-0.9-1.2-0.9-2.1c0-0.8,0.3-1.4,0.9-2c0.6-0.6,1.2-0.8,2-0.8C323.4,135.8,324,136.1,324.6,136.6z M324,146.8v31.2h-2.8v-31.2H324
			z"/>
		<path class="st0" d="M346.6,150.1h-16.1v-2.8h21l-16.2,27.9h17.4v2.9h-22.3L346.6,150.1z"/>
		<path class="st0" d="M373.4,150.1h-16.1v-2.8h21l-16.2,27.9h17.4v2.9h-22.3L373.4,150.1z"/>
		<path class="st0" d="M386.7,159.9c-0.1,0.5-0.1,1-0.1,1.6c0,4,1.4,7.4,4.2,10.2c2.8,2.8,6.2,4.2,10.2,4.2s7.4-1.4,10.2-4.2
			c0.5-0.5,0.9-1,1.4-1.5l3.1,1.1c-0.4,0.6-1.1,1.5-2.3,2.6c-3.4,3.4-7.5,5.1-12.4,5.1c-4.8,0-8.9-1.7-12.3-5.1s-5.1-7.5-5.1-12.3
			c0-4.8,1.7-9,5.1-12.4s7.5-5.1,12.3-5.1c4.9,0,9,1.7,12.4,5.1c3,3,4.5,6.6,4.5,10.8L386.7,159.9L386.7,159.9z M387.3,157h27.4
			c-0.7-2.2-1.8-4.1-3.4-5.7c-2.8-2.8-6.2-4.2-10.2-4.2s-7.4,1.4-10.2,4.2C389.2,153,388,154.9,387.3,157z"/>
		<path class="st0" d="M433.8,149.4c-2,0.3-4,1.6-6,3.9s-3,4.6-3,6.9v17.9H422v-31.2h2.9v6.8c1.2-3.1,3.7-5.5,7.4-7L433.8,149.4z"/>
		<path class="st0" d="M441.5,136.6c0.6,0.6,0.9,1.2,0.9,2c0,0.8-0.3,1.5-0.9,2.1c-0.6,0.6-1.2,0.8-2,0.8c-0.8,0-1.5-0.3-2-0.8
			s-0.9-1.2-0.9-2.1c0-0.8,0.3-1.4,0.9-2c0.6-0.6,1.2-0.8,2-0.8C440.3,135.8,441,136.1,441.5,136.6z M441,146.8v31.2h-2.8v-31.2H441
			z"/>
		<path class="st0" d="M482.4,178.1h-2.9v-6.4c-0.5,0.7-1.1,1.4-1.8,2.1c-3.4,3.4-7.5,5.1-12.4,5.1c-4.8,0-8.9-1.7-12.3-5.1
			c-3.4-3.4-5.1-7.5-5.1-12.3c0-4.8,1.7-9,5.1-12.4s7.5-5.1,12.3-5.1c4.9,0,9,1.7,12.4,5.1c0.6,0.7,1.2,1.4,1.8,2.1v-4.4h2.9V178.1z
			 M479.5,164.3v-5.6c-0.5-2.8-1.9-5.3-4-7.4c-2.8-2.8-6.2-4.2-10.2-4.2s-7.4,1.4-10.2,4.2s-4.2,6.2-4.2,10.2s1.4,7.4,4.2,10.2
			c2.8,2.8,6.2,4.2,10.2,4.2s7.4-1.4,10.2-4.2C477.7,169.6,479,167.1,479.5,164.3z"/>
	</g>
	<g>
		<path class="st1" d="M442,112.3l-94.6-59.5c0,0-0.4,3.5,0,5.7c0.7,4.3,30.7,24,57.2,40.7c21.1,13.2,25.4,16.7,26.3,16.3L442,112.3
			z"/>
		<path class="st2" d="M353.3,55.5c-0.6-1.5-4.8,13.3-1.9,16c2.5,2.4,3.7-4.1,8.1-4.4c3.8-0.2-1.8,13.6,1.9,15.6
			c3.7,1.9,5.7-3.8,9.1-5.6c6.4-3.1,7.6,0.6,9.1,4.8c1.1,3.2,1.7,11.4,3.6,11.7c7.6,1.3,8.9-8.4,12.8-4s-1.4,23.9,2.6,23.9
			c5.6,0,12-10.8,17.4-9.5c3.9,0.9,2.6,2.9,4,9c0.5,2.1,0,14.7,3.8,15.5c4.6,0.9,17.3-10,16.2-10.8c-1.7-1.2-3.6-2.3-5.9-4.6
			c-2.8-2.7-3.2-5.8-7-8.7C426.4,103.8,353.6,56.3,353.3,55.5z"/>
		<path class="st1" d="M404.2,9.3c-5.2-1.7-56.6,37.5-57,42.8c-0.1,1,0.2,2.8,5.2,4.6c1,0.3,52.8-39.6,55.4-41.9
			C409.6,13.3,406.5,10.1,404.2,9.3z"/>
		<path class="st3" d="M436.4,60.5c-7.3-17.4-18.6-45.7-28.5-45.7c-3.5,0-49.5,37.1-55.4,41.9c-1.2,1.3,26,15.9,43.5,27.6
			c14.6,9.8,31.2,19.8,32.3,21.6c2.6,4.3,3.9,5.7,6,8.1c2.8,3.1,5.7,4.5,7.5,3.5C450.2,112.8,440.2,69.6,436.4,60.5z"/>
		<circle class="st4" cx="416.6" cy="69.4" r="8.3"/>
		<circle class="st4" cx="423.8" cy="93.7" r="5.5"/>
		<circle class="st4" cx="408.4" cy="35.6" r="10.9"/>
		<path class="st4" d="M387.2,77.9c-0.3,0.4-0.5,0.3-0.9,0.1c-1.6-1-0.8-0.6-3.2-1.9c-1.4-0.8-1.6-1-3.9-2.4c-1.3-0.8-3.6-2.2-4.8-3
			c-2.9-1.8-5.4-3.2-6.7-4.2c-0.4-0.3,0.2-0.9,0.4-1.3c3.2-5.2,10-5.8,15.3-2.6S390.5,72.7,387.2,77.9z"/>
		<path class="st4" d="M427.3,40.8c0.3-0.2,0.4,0.1,0.6,0.3c0.6,1.2,0.3,0.7,1.1,2.4c0.5,1,0.6,1.3,1.4,3c0.5,1,1.2,2.8,1.7,3.7
			c1,2.2,2,4.1,2.3,5.2c0.1,0.3-0.5,0.5-0.8,0.6c-4.1,1.8-8.4-0.6-10.2-4.7S423.2,42.6,427.3,40.8z"/>
		<path class="st4" d="M367.1,46c-0.3-0.3-0.1-0.5,0.2-0.8c1.3-1.1,0.7-0.5,2.5-2.1c1.1-0.9,1.3-1.1,3.1-2.6c1-0.9,2.9-2.3,3.9-3.2
			c2.3-1.9,4.2-3.6,5.4-4.4c0.3-0.2,0.7,0.4,1,0.7c3.4,4.2,2,10-2.2,13.4C376.8,50.6,370.5,50.2,367.1,46z"/>
		<path class="st4" d="M441.4,81.7c0.4-0.1,0.5-0.2,0.6,0.1c0.6,1.2,2.4,12.6,2.2,16.1c0,0.3-1.1,0.1-1.4,0.1
			c-4.4,0.3-7.1-2.5-7.9-6.9C434.3,86.8,437.1,82.5,441.4,81.7z"/>
	</g>
</g>
<g id="Layer_2" class="st5">
	<g class="st6">
		<path class="st0" d="M566.5-72.5c-6.5,17-24.1,21.6-40.4,24.7c-0.7,0.8-0.8,2-0.8,3.2c0,2.4,0.8,5,1,7.4c0,0.7-0.1,1.4-0.4,2
			l0.7,24.1c-1.4,1.1-2.8,2.2-4.5,2.2c-0.8,0-1.7-0.3-2.7-0.8c-3.5-3.8-3.6-9.5-3.6-14.2v-2.1c0-4.5,1.2-9.2,1.2-13.8
			c0-3.9-0.8-7.7-3.8-11.1c2-5.6,2.5-9.8,2.5-13.4c-0.1-7.8-3.3-12.7-4.3-22.7v-0.8c0-7.1,8.9-7.8,13.9-10.6h3.6
			c13.1,0,26.1,3.5,34.7,15.2c1.5,2.5,3.2,5.7,3.2,8.5C566.9-74,566.7-73.2,566.5-72.5z M554.6-81.7l-8.6-5.2
			c-3.8-0.8-9.2-2.2-13.8-2.2c-3.8,0-7,1-8.6,3.9c2.9,7.7,1.7,15.2,2.5,22.9c0,1-0.8,2-0.8,2.8c0,0.6,0.3,1.1,0.8,1.7
			c11.3-0.8,20.8-5.3,27.9-13.9c0.7-2.1,2.5-4.3,2.5-6.6C556.4-79.4,556-80.6,554.6-81.7z"/>
		<path class="st0" d="M579.1-67.9c-2.8-1-6.7-0.4-7.5-4.3c-0.1-0.6-0.3-1.1-0.3-1.5c0-2.5,1.4-4.5,3.6-5.3c3.1,1.3,7.5,1.8,7.8,6.3
			C582.5-70.8,580.5-69.3,579.1-67.9z M581-12.5c-0.6,0-1.3-0.1-2-0.6l-3.5-3.5l-1.4-35.1c0.8-2.2,3.1-3.5,5.4-3.5
			c1.7,0,3.3,0.7,4.5,2.2c1.8,5,2.1,10.6,2.2,16.3c0,2.8-0.1,5.7-0.1,8.6c0,3.6,0.1,7.2,0.7,10.7h0.1
			C585.7-15.3,583.5-12.5,581-12.5z"/>
		<path class="st0" d="M651.8-20.2v0.1c-1.7,1.1-3.5,2.9-5.6,2.9c-0.7,0-1.4-0.3-2.2-0.8c-0.3-0.3-0.6-0.4-0.8-0.3
			c-0.8,0-2,0.6-2.5,1.1c-1.5-0.1-3.1-0.1-4.5-0.1c-13.7,0-8.6,1.5-21.6,1.4c-5.4,0-10.9-0.7-16.3-2.8c-1.7-0.7-2.2-2.1-2.4-3.6
			c0-1.3,0.4-2.6,0.8-3.6c5.3-7.8,14.1-14.8,20.5-21.9c-1.5-0.6-3.2-0.7-5-0.7c-2.9,0-6.1,0.6-8.9,0.6c-4,0-7.5-1-9.2-5.8
			c-0.1-0.4-0.1-0.7-0.1-1c0-2,1.4-3.3,2.9-4.7c2.8,0.7,5.9,0.8,8.9,0.8c4.2,0,8.5-0.3,12.5-0.3c6.5,0,12.7,0.8,17,5.3
			c-0.3,11.2-12.7,13.2-19,21.5c-1.1,1.5-3.3,2.6-3.3,4.6v0.4c1.8,0.6,3.6,0.8,5.3,0.8c5.4,0,4.2-0.8,9.8-0.8c0.3,0,0.6,0,1,0.1h1.7
			c9.5,0,6.4-1.5,16-1.5c0.3,0,0.6,0,0.7-0.1c1,1.5,3.2,0.4,4.3,1.7c0.7,1,1,2,1,2.8v0.1C652.7-22.9,652.2-21.6,651.8-20.2z"/>
		<path class="st0" d="M706.2-20.2v0.1c-1.7,1.1-3.5,2.9-5.6,2.9c-0.7,0-1.4-0.3-2.2-0.8c-0.3-0.3-0.6-0.4-0.8-0.3
			c-0.8,0-2,0.6-2.5,1.1c-1.5-0.1-3.1-0.1-4.5-0.1c-13.7,0-8.6,1.5-21.6,1.4c-5.4,0-10.9-0.7-16.3-2.8c-1.7-0.7-2.2-2.1-2.4-3.6
			c0-1.3,0.4-2.6,0.8-3.6c5.3-7.8,14.1-14.8,20.5-21.9c-1.5-0.6-3.2-0.7-5-0.7c-2.9,0-6.1,0.6-8.9,0.6c-4,0-7.5-1-9.2-5.8
			c-0.1-0.4-0.1-0.7-0.1-1c0-2,1.4-3.3,2.9-4.7c2.8,0.7,5.9,0.8,8.9,0.8c4.2,0,8.5-0.3,12.5-0.3c6.5,0,12.7,0.8,17,5.3
			c-0.3,11.2-12.7,13.2-19,21.5c-1.1,1.5-3.3,2.6-3.3,4.6v0.4c1.8,0.6,3.6,0.8,5.3,0.8c5.4,0,4.2-0.8,9.8-0.8c0.3,0,0.6,0,1,0.1h1.7
			c9.5,0,6.4-1.5,16-1.5c0.3,0,0.6,0,0.7-0.1c1,1.5,3.2,0.4,4.3,1.7c0.7,1,1,2,1,2.8v0.1C707.2-22.9,706.7-21.6,706.2-20.2z"/>
		<path class="st0" d="M732.9-11.6c-2,1-3.9,1.2-5.8,1.2c-4.7-0.1-9.5-2.2-13.8-3.5C706-18,704-25.2,704-32.9c0-3.2,0.3-6.5,0.7-9.6
			c1.4-4.5,4.2-11.3,7.2-15c3.6-4.7,9.2-4.9,14.6-4.9c1,0,2.1,0.1,3.2,0.4c3.8,2.2,9.1,5.2,10.5,10.3c0,0.4,1,4,1,4.5
			c0,4.5-3.6,8.5-7.2,9.9c-6.4,2.5-18,3.3-20.8,4c-1,3.1,0.4,4.9,1.4,7c1.3,2.6,8.2,5.7,11.8,5.7c2.9,0,5.7-0.4,7.8-2.9
			c0.4-0.1,0.8-0.1,1.3-0.1c2.1,0,3.6,1.4,4.9,2.9c0.1,0.6,0.1,1.1,0.1,1.5C740.5-15.2,735.2-13.6,732.9-11.6z M729.4-46.3
			c2-2.1-0.6-5-2.4-5s-5.7,0.3-7.2,2.4c-1.7,2.1-2.9,5.6-2.9,5.6C716.6-42.9,727.6-44.3,729.4-46.3z"/>
		<path class="st0" d="M783.3-43.6c-2.2-1.4-4.7-2.8-7.5-2.7c-1,0-2.1,0.1-3.2,0.6c-11.3,4.9-7.1,18.7-8.9,28.9
			c-1.7,0.7-3.3,2.8-5.2,2.8c-0.7,0-1.4-0.3-2.1-1c-8.2-12.4-9.8-27.6-11.8-42.8v-1c0-1.7,0.7-3.3,2.1-3.8c0.8-0.3,1.5-0.4,2.2-0.4
			c4.2,0,5.2,4.9,6.8,8.1c0.1,0.4,0.1,0.8,0.1,1.4c0,1-0.1,2.1-0.1,3.1c0,1.4,0.3,2.7,1.4,3.5c5.2-3.8,10-7.9,16.2-9.3
			c0.8,0,1.7,0,2.5-0.1c4.5,0,8.9,1.1,10.9,5l0.1,0.3v1.3C786.8-47.1,785.8-44.6,783.3-43.6z"/>
		<path class="st0" d="M797.5-67.9c-2.8-1-6.7-0.4-7.5-4.3c-0.1-0.6-0.3-1.1-0.3-1.5c0-2.5,1.4-4.5,3.6-5.3c3.1,1.3,7.5,1.8,7.8,6.3
			C800.9-70.8,798.9-69.3,797.5-67.9z M799.3-12.5c-0.6,0-1.3-0.1-2-0.6l-3.5-3.5l-1.4-35.1c0.8-2.2,3.1-3.5,5.4-3.5
			c1.7,0,3.3,0.7,4.5,2.2c1.8,5,2.1,10.6,2.2,16.3c0,2.8-0.1,5.7-0.1,8.6c0,3.6,0.1,7.2,0.7,10.7h0.1
			C804.1-15.3,801.9-12.5,799.3-12.5z"/>
		<path class="st0" d="M852.3-33c0,5.3-0.4,10.6-1.4,15.8c-1.4,2.5-3.8,3.5-6.3,3.5c-1.3,0-2.5-0.3-3.6-0.7c-4,1.8-9.1,4.2-13.9,4.2
			c-2.4,0-4.7-0.6-7-2.1c-3.6-0.8-5.6-4.9-7.8-7.8c-0.4-1.5-0.7-3.2-0.7-4.9c0-4.3,1.7-8.6,5-11.9c4.2-4.2,8.6-7.1,14.5-7.1h0.8
			c0.1,0,0.3,0,0.4,0.1c2.5,0,3.9,2.4,6.1,2.4c0.6,0,1.1-0.1,1.8-0.3c0.6-1.5,0.8-3.1,0.8-4.6c0-4.7-2.9-9.1-5.9-13
			c-0.3-0.1-0.6-0.1-0.8-0.1c-3.3,0-7.2,3.6-10,3.6c-1.5,0-2.8-1-3.5-4.2c0.3-5.6,5.3-7.5,9.8-9.6c6.3,0.3,13.1,0.8,16,7.4
			c3.9,8.6,5.7,19,5.7,29.3L852.3-33L852.3-33z M836-29.7v-1c-0.8-2-2-2.7-3.3-2.7c-2.7,0-5.8,3.3-7.8,5c-0.1,1.4-1.4,2.9-1.4,4.3
			c0,0.7,0.3,1.4,1.4,2c1.3,0.4,2.9,0.8,4.6,0.8s3.3-0.4,4.6-1.5c1.8-0.7,2.2-2,2.2-3.3C836.3-27.2,836-28.4,836-29.7z"/>
	</g>
	<g class="st6">
		<path class="st7" d="M415.1-248.8c-0.6-1.5-4.7,11.9-1.8,14.6c2.5,2.4,3.7-4.1,8.1-4.4c3.8-0.2-1.9,13.6,1.9,15.6
			c3.7,1.9,5.7-3.9,9.2-5.6c6.4-3.1,7.6,0.6,9.1,4.8c1.1,3.2,1.7,11.4,3.6,11.7c7.6,1.3,8.9-8.4,12.9-4s-1.4,24,2.6,24
			c5.7,0,12-10.8,17.4-9.5c3.9,0.9,2.6,2.9,4,9c0.5,2.1,0,14.7,3.8,15.5c4.6,0.9,12.9-11,11.7-11.8c-1.7-1.2-3.5-2.2-5.8-4.5
			c-2.8-2.7-2.6-5.1-6.4-8C484.7-202,415.5-248,415.1-248.8z"/>
		<path class="st8" d="M458.8-305.6c-8.6-0.9-57.9,37.2-58.8,43.8c-0.4,3.1,8.6,11.8,13.7,13.6c1,0.4,50.4-40.1,53.1-42.5
			C468.5-292.3,464.3-305,458.8-305.6z"/>
		<path class="st9" d="M495.3-245.8c-7.3-17.4-18.8-44.6-28.7-44.6c-3.5,0-8.1,4.5-10.4,6.4c-7.2,6.1-14.2,12.4-21.5,18.5
			c-5.8,4.9-11.9,9.5-17.7,14.2c-2.7,2.2-1.9,3.2-0.4,3.8c1.7,0.6,20.7,13.9,38.2,25.7c14.6,9.9,31.3,19.8,32.4,21.6
			c2.6,4.3,3.9,5.6,6,8.1c2.8,3.1,5.7,4.5,7.5,3.5C509.1-193.5,499.1-236.6,495.3-245.8z"/>
		<circle class="st10" cx="481.5" cy="-229" r="8.3"/>
		<circle class="st10" cx="465.7" cy="-266.8" r="10.9"/>
		<path class="st10" d="M450.8-224.9c-0.3,0.4-0.6,0.2-0.9,0c-1.6-1.1-0.8-0.6-3.1-2.1c-1.3-0.9-1.6-1.1-3.8-2.6
			c-1.3-0.9-3.5-2.4-4.7-3.2c-2.8-1.9-5.3-3.4-6.5-4.5c-0.3-0.3,0.2-0.9,0.5-1.3c3.5-5.1,10.3-5.4,15.4-1.9
			C452.7-236.9,454.2-230,450.8-224.9z"/>
		<path class="st10" d="M488.1-261.8c0.3-0.1,0.4,0.1,0.6,0.3c0.5,1.3,0.3,0.7,1.1,2.4c0.5,1,0.5,1.3,1.3,3.1c0.4,1,1.2,2.8,1.6,3.8
			c1,2.2,1.9,4.1,2.3,5.2c0.1,0.3-0.5,0.5-0.8,0.6c-4.1,1.8-8.4-0.7-10.1-4.8C482.3-255.2,484-260.1,488.1-261.8z"/>
		<path class="st10" d="M425.3-257.8c-0.3-0.3-0.1-0.5,0.2-0.8c1.3-1.1,0.7-0.5,2.5-2.1c1.1-0.9,1.3-1.1,3.1-2.6
			c1-0.9,2.9-2.4,3.9-3.2c2.3-1.9,4.2-3.6,5.4-4.4c0.3-0.2,0.7,0.4,1,0.7c3.4,4.2,2,10-2.2,13.5S428.7-253.6,425.3-257.8z"/>
		<path class="st10" d="M502.4-214.9c0.4,0,0.5-0.1,0.6,0.1c0.5,1.2,1.6,12.8,1.3,16.2c0,0.3-1.1,0-1.4,0c-4.4,0.1-6.9-2.9-7.5-7.4
			C494.9-210.3,498-214.4,502.4-214.9z"/>
	</g>
	<g class="st6">
		<path class="st0" d="M100.8-134c-0.6,5.4-0.9,9.7-0.9,12.9c0,1.3-0.4,2.4-1.2,3.4c-0.8,1-1.8,1.5-3.1,1.5c-2.8,0-4.3-1.7-4.3-5
			c0-1.8,0.7-8,2-18.6c1.1-8.5,1.6-13.6,1.6-15.3c0-1.9-0.1-2.9-0.2-3.2c-1.5-0.8-2.3-2.1-2.3-4.1c0-1.9,3.1-3.6,9.4-5.1
			c6.3-1.4,11.7-2.2,16.1-2.2c5.2,0,9.4,1.1,12.5,3.2c3.1,2.2,4.7,5.1,4.7,8.7c0,5.3-2.9,9.9-8.6,13.9c-5.7,4-12.6,6.8-20.8,8.5
			C103-134.5,101.3-134.1,100.8-134z M103.9-160.1l-2.1,18.3c6.7-1.1,12.5-3.1,17.6-5.9s7.6-5.9,7.6-9.1c0-3.9-3.1-5.8-9.2-5.8
			C113.6-162.7,109-161.8,103.9-160.1z"/>
		<path class="st0" d="M152.4-129.9c-6.1,8.1-12,12.1-17.7,12.1c-2.1,0-3.9-0.8-5.4-2.5s-2.3-3.7-2.3-6.3c0-6.1,2.7-12.7,8.2-19.6
			s11-10.4,16.6-10.4c2.8,0,4.7,1.4,5.6,4.3c2.7,0,4,1,4,3.1c0,1-0.3,2.7-0.8,5.3c-0.9,4.8-1.4,8.6-1.4,11.4c0,3,0.2,5.1,0.6,6.3
			s0.7,2,0.9,2.4s0.7,0.8,1.7,1.2c0.9,0.4,1.4,1.1,1.4,1.8c0,1.2-0.6,2.2-1.8,3c-1.2,0.8-2.4,1.2-3.7,1.2
			C153.9-116.8,151.9-121.1,152.4-129.9z M150.3-149.2c-2.3,0-5.4,2.6-9.1,7.8c-3.7,5.2-5.6,9.6-5.6,13.2c0,1.9,0.4,2.8,1.2,2.8
			c2.7,0,6.1-2.4,10.1-7.3s6-9.1,6-12.8c0-1.2-0.3-2.1-0.8-2.8C151.5-148.8,150.9-149.2,150.3-149.2z"/>
		<path class="st0" d="M189.5-130.9c-2.2,4.1-4.8,7.3-7.7,9.7s-5.9,3.6-8.9,3.6c-1.8,0-3.6-0.9-5.4-2.8s-2.7-4.8-2.7-8.7
			c0-2.8,0.7-6.9,2.1-12.5c1.2-4.6,1.8-8.1,1.8-10.5c0.9-1.9,2.4-2.9,4.4-2.9c1.3,0,2.4,0.4,3.2,1.3s1.2,1.8,1.2,2.7
			c0,1.6-0.6,4-1.7,7c-0.7,1.8-1.4,4.4-2.2,7.7c-0.8,3.3-1.2,5.4-1.2,6.4c0,3.1,0.6,4.6,1.9,4.6c2,0,4.7-1.9,8.2-5.8
			c3.4-3.9,5.7-7.8,6.7-11.9c1-4,2-6.6,2.8-7.8s2-1.8,3.4-1.8c2.4,0,3.6,1.3,3.6,4c0,0.4-0.2,1.2-0.6,2.4c-1.4,4.1-2.1,8.7-2.1,13.9
			c0,6,1,9.6,3.1,10.8c0.7,0.4,1,0.9,1,1.5c0,0.8-0.6,1.6-1.8,2.4c-1.2,0.7-2.3,1.1-3.4,1.1c-1.8,0-3.2-1.3-4.2-3.9
			S189.5-126.6,189.5-130.9z"/>
		<path class="st0" d="M214.3-177.1c2.5,0,3.8,1.4,3.8,4.1c0,1.2-0.2,2.6-0.5,4.1s-1.3,5-2.9,10.8c-1.1,4.1-2,8.7-2.6,13.6
			c-0.6,4.9-0.9,8.7-0.9,11.5c0,2.9,0.2,6.4,0.7,10.5c0.1,1.1,0.2,1.8,0.2,2.1c0,1.4-0.5,2.6-1.5,3.6s-2.1,1.5-3.3,1.5
			c-1.6,0-2.8-0.8-3.5-2.3s-1-4.2-1-8c0-8.1,1-17.7,2.9-28.8c1.9-11,3.5-17.6,4.7-19.6C211.5-176.1,212.8-177.1,214.3-177.1z"/>
		<path class="st0" d="M247.9-138.7c-0.4,5.6-1,11.1-2,16.4c-0.9,5.3-2.3,10.1-4.1,14.4s-3.8,7.2-5.9,8.8s-4.6,2.3-7.5,2.3
			c-3.1,0-6.1-0.6-8.9-1.8h0c-2.5-1-4.6-2.4-6.4-4.1c-1.8-1.7-2.7-3.2-2.7-4.3c0-1.1,0.3-2,0.8-2.6c0.5-0.7,1.3-1,2.1-1
			c0.8,0,1.4,0.3,1.9,1c3,3.8,7.3,5.7,12.9,5.7c2.3,0,4.5-2.4,6.6-7.2c2.1-4.8,3.5-10.6,4-17.3c-7.2,5.7-12.7,8.5-16.6,8.5
			c-2.5,0-4.5-1-5.9-3s-2.2-4.4-2.2-7.2s0.6-6.9,2-12.2c1.3-5.3,2.4-8.7,3.3-9.9s2.4-1.9,4.5-1.9c1.1,0,2,0.5,2.6,1.4s0.9,2,0.9,3.2
			c0,0.4-0.8,2.3-2.5,5.9c-2,4.4-3.1,8.1-3.1,11.3c0,1.6,0.2,2.9,0.7,3.7s0.9,1.3,1.4,1.3c1.1,0,2.5-0.3,4.1-1
			c1.6-0.7,3.4-1.8,5.6-3.5c2.1-1.7,3.5-2.9,4.2-3.8c0.6-0.9,1.1-2,1.5-3.3c0.4-1.4,0.7-4.3,0.9-9c0.1-2.7,0.2-4.4,0.4-5.1
			s0.6-1.3,1.2-1.9s1.6-0.9,2.7-0.9c1.5,0,2.6,0.3,3.2,1s1,2.2,1,4.6L247.9-138.7z"/>
		<path class="st0" d="M268.2-127c-0.1-1.3-2.1-2.8-6-4.6c-4.8-2.3-7.8-4.3-9.1-5.9c-1.3-1.7-2-3.5-2-5.4c0-4.1,2.3-7.7,6.9-10.8
			c4.6-3.1,8.9-4.6,12.9-4.6c3.9,0,5.9,1.7,5.9,5.1c0,0.9-0.5,1.7-1.3,2.4s-1.6,1.1-2.3,1.1c-0.3,0-0.7-0.2-1.4-0.5
			c-0.6-0.3-1.1-0.5-1.5-0.5c-2.1,0-4.3,0.7-6.8,2.1s-3.7,3-3.7,4.9c0,0.9,0.4,1.8,1.3,2.6s2.7,1.9,5.4,3.2c4,1.9,6.6,3.6,7.9,5.1
			s1.9,3.2,1.9,5.1c0,3.4-2.3,6.2-6.9,8.5s-9.7,3.4-15.4,3.4c-4.2,0-6.3-1.5-6.3-4.6c0-1.1,0.4-2.1,1.3-2.8s1.9-1.2,3-1.2
			c0.4,0,1.1,0.2,2.1,0.5c0.9,0.3,1.8,0.5,2.6,0.5c2.2,0,4.5-0.3,6.9-1C265.9-125.2,267.5-126,268.2-127z"/>
	</g>
</g>
</svg>
